<svg width="1200" height="1400" viewBox="0 0 1200 1400" xmlns="http://www.w3.org/2000/svg" preserveAspectRatio="xMidYMid slice">
  <defs>
    <linearGradient id="bg" x1="0" y1="0" x2="1" y2="1">
      <stop offset="0%" stop-color="#0B1120" />
      <stop offset="100%" stop-color="#111827" />
    </linearGradient>
    <linearGradient id="glow" x1="0" y1="0" x2="1" y2="1">
      <stop offset="0%" stop-color="#10B981" stop-opacity="0.7" />
      <stop offset="100%" stop-color="#3B82F6" stop-opacity="0.7" />
    </linearGradient>
  </defs>
  <rect width="1200" height="1400" fill="url(#bg)" />
  <circle cx="600" cy="520" r="320" fill="#111827" stroke="url(#glow)" stroke-width="24" opacity="0.95" />
  <path d="M600 640c-110 0-200 70-200 156v16c0 32 30 58 68 58h264c38 0 68-26 68-58v-16c0-86-90-156-200-156Z" fill="#1F2937" />
  <path d="M600 220c-98 0-178 80-178 178s80 178 178 178 178-80 178-178-80-178-178-178Z" fill="#374151" />
  <path d="M600 250c-75 0-136 61-136 136s61 136 136 136 136-61 136-136-61-136-136-136Z" fill="#4B5563" />
  <path d="M600 390c-55 0-100-45-100-100s45-100 100-100 100 45 100 100-45 100-100 100Z" fill="#111827" opacity="0.5" />
  <rect x="240" y="920" width="720" height="80" rx="40" fill="#111827" opacity="0.7" />
  <rect x="360" y="1020" width="480" height="46" rx="23" fill="#111827" opacity="0.7" />
  <rect x="320" y="1100" width="560" height="32" rx="16" fill="#111827" opacity="0.6" />
  <text x="50%" y="1320" text-anchor="middle" fill="#CBD5E1" font-family="Inter, ui-sans-serif, system-ui, sans-serif" font-size="52">Professional Portrait</text>
</svg>
